<?xml version="1.0" encoding="iso-8859-1"?>
<!-- Generator: Adobe Illustrator 19.0.0, SVG Export Plug-In . SVG Version: 6.00 Build 0)  -->
<svg version="1.1" id="Layer_1" xmlns="http://www.w3.org/2000/svg" xmlns:xlink="http://www.w3.org/1999/xlink" x="0px" y="0px"
	 viewBox="0 0 512 512" style="enable-background:new 0 0 512 512;" xml:space="preserve">
<polygon style="fill:#F2D59F;" points="188.042,323.958 188.042,10.199 98.782,10.199 98.782,413.218 501.801,413.218 
	501.801,323.958 "/>
<polygon style="fill:#8ECAC1;" points="323.958,188.042 323.958,501.801 413.218,501.801 413.218,98.782 10.199,98.782 
	10.199,188.042 "/>
<g>
	<path style="fill:#4D3D36;" d="M501.801,313.759h-78.384V103.008l72.073-72.073c3.983-3.983,3.983-10.441,0-14.425
		c-3.983-3.983-10.441-3.983-14.425,0l-72.073,72.073H198.241V10.199C198.241,4.566,193.675,0,188.042,0H98.782
		c-5.633,0-10.199,4.566-10.199,10.199v78.384H10.199C4.566,88.583,0,93.149,0,98.782v89.259c0,5.633,4.566,10.199,10.199,10.199
		h78.384v214.977c0,5.633,4.566,10.199,10.199,10.199h214.977v78.384c0,5.633,4.566,10.199,10.199,10.199h89.259
		c5.633,0,10.199-4.566,10.199-10.199v-78.384h78.384c5.633,0,10.199-4.566,10.199-10.199v-89.259
		C512,318.325,507.434,313.759,501.801,313.759z M108.982,20.398h68.861v68.185h-68.861
		C108.982,88.583,108.982,20.398,108.982,20.398z M108.982,403.018V198.241h68.861v125.718c0,5.633,4.566,10.199,10.199,10.199
		H313.76v68.861H108.982V403.018z M313.759,313.759H212.665l101.094-101.094V313.759z M198.241,299.335V198.241h101.095
		L198.241,299.335z M403.018,491.602h-68.861v-303.56c0-5.633-4.566-10.199-10.199-10.199H20.398v-68.861h382.62V491.602z
		 M491.602,403.018h-68.185v-68.861h68.185V403.018z"/>
	<path style="fill:#4D3D36;" d="M381.45,481.402c5.633,0,10.199-4.566,10.199-10.199V363.01c0-5.633-4.566-10.199-10.199-10.199
		c-5.633,0-10.199,4.566-10.199,10.199v108.193C371.251,476.836,375.817,481.402,381.45,481.402z"/>
	<path style="fill:#4D3D36;" d="M381.45,341.755c5.633,0,10.199-4.566,10.199-10.199v-5.181c0-5.633-4.566-10.199-10.199-10.199
		c-5.633,0-10.199,4.566-10.199,10.199v5.181C371.251,337.189,375.817,341.755,381.45,341.755z"/>
</g>
<g>
</g>
<g>
</g>
<g>
</g>
<g>
</g>
<g>
</g>
<g>
</g>
<g>
</g>
<g>
</g>
<g>
</g>
<g>
</g>
<g>
</g>
<g>
</g>
<g>
</g>
<g>
</g>
<g>
</g>
</svg>
