<?xml version="1.0" encoding="iso-8859-1"?>
<!-- Generator: Adobe Illustrator 16.0.0, SVG Export Plug-In . SVG Version: 6.00 Build 0)  -->
<!DOCTYPE svg PUBLIC "-//W3C//DTD SVG 1.1//EN" "http://www.w3.org/Graphics/SVG/1.1/DTD/svg11.dtd">
<svg version="1.1" id="Capa_1" xmlns="http://www.w3.org/2000/svg" xmlns:xlink="http://www.w3.org/1999/xlink" x="0px" y="0px"
	 width="71.682px" height="71.682px" viewBox="0 0 71.682 71.682" style="enable-background:new 0 0 71.682 71.682;"
	 xml:space="preserve">
<g>
	<g>
		<path d="M15.681,35.617c0,0,9.185,8.959,20.384,8.959s20.385-8.959,20.385-8.959s-9.186-8.96-20.385-8.96
			S15.681,35.617,15.681,35.617z M41.665,35.617c0,3.135-2.463,5.6-5.6,5.6c-3.137,0-5.602-2.465-5.602-5.6
			c0-3.137,2.464-5.601,5.602-5.601C39.202,30.016,41.665,32.481,41.665,35.617z"/>
		<path d="M64.962,0H6.721c-3.808,0-6.72,2.912-6.72,6.72v58.24c0,3.81,2.912,6.722,6.72,6.722h58.24c3.81,0,6.72-2.912,6.72-6.722
			V6.721C71.681,2.912,68.771,0,64.962,0z M25.09,4.704c1.344,0,2.688,1.12,2.688,2.688s-1.12,2.688-2.688,2.688
			c-1.344,0-2.688-1.12-2.688-2.688S23.522,4.704,25.09,4.704z M17.697,4.704c1.345,0,2.688,1.12,2.688,2.688
			s-1.12,2.688-2.688,2.688c-1.568,0-2.688-1.12-2.688-2.688S16.13,4.704,17.697,4.704z M10.082,4.704
			c1.344,0,2.688,1.12,2.688,2.688s-1.12,2.688-2.688,2.688S7.393,8.96,7.393,7.392S8.738,4.704,10.082,4.704z M63.841,59.361
			c0,2.464-2.016,4.479-4.479,4.479H12.322c-2.464,0-4.479-2.016-4.479-4.479v-40.32c0-2.464,2.017-4.48,4.479-4.48h19.04
			c4.256,0,4.479,0,4.479-2.239c0-2.912,2.018-4.48,4.479-4.48H59.36c2.464,0,4.479,2.016,4.479,4.48L63.841,59.361L63.841,59.361z"
			/>
	</g>
</g>
</svg>
