<?xml version="1.0" encoding="iso-8859-1"?>
<!-- Generator: Adobe Illustrator 19.0.0, SVG Export Plug-In . SVG Version: 6.00 Build 0)  -->
<svg version="1.1" id="Layer_1" xmlns="http://www.w3.org/2000/svg" xmlns:xlink="http://www.w3.org/1999/xlink" x="0px" y="0px"
	 viewBox="0 0 512.003 512.003" style="enable-background:new 0 0 512.003 512.003;" xml:space="preserve">
<rect x="7.834" y="63.001" style="fill:#CBBBA0;" width="450.419" height="441.169"/>
<rect x="7.834" y="63.001" style="fill:#E0D6C6;" width="209.121" height="441.169"/>
<polygon style="fill:#5EBAE7;" points="188.318,294.094 217.913,323.689 180.919,360.683 136.526,375.48 151.324,331.088 "/>
<rect x="311.666" y="-3.702" transform="matrix(-0.7071 -0.7071 0.7071 -0.7071 440.9134 541.4433)" style="fill:#36A9E1;" width="41.855" height="366.214"/>
<g>
	<path style="fill:#1D1D1B;" d="M447.276,24.062L144.48,326.858l-20.335,61.003l61.003-20.335L487.945,64.731L447.276,24.062z
		 M465.797,64.731L217.913,312.616l-18.521-18.521L447.276,46.209L465.797,64.731z M176.689,353.839l-27.782,9.261l9.261-27.782
		l30.15-30.15l18.521,18.521L176.689,353.839z"/>
	
		<rect x="452.879" y="19.902" transform="matrix(-0.7071 -0.7071 0.7071 -0.7071 807.088 389.77)" style="fill:#1D1D1B;" width="62.777" height="15.659"/>
	<polygon style="fill:#1D1D1B;" points="466.088,512.003 0.003,512.003 0.003,53.962 361.739,53.962 361.739,69.623 15.664,69.623 
		15.664,496.342 450.427,496.342 450.427,142.227 466.088,142.227 	"/>
</g>
<g>
</g>
<g>
</g>
<g>
</g>
<g>
</g>
<g>
</g>
<g>
</g>
<g>
</g>
<g>
</g>
<g>
</g>
<g>
</g>
<g>
</g>
<g>
</g>
<g>
</g>
<g>
</g>
<g>
</g>
</svg>
