<?xml version="1.0" encoding="UTF-8"?>
<svg xmlns="http://www.w3.org/2000/svg" xmlns:xlink="http://www.w3.org/1999/xlink" width="14pt" height="18pt" viewBox="0 0 14 18" version="1.1">
<g id="surface1">
<path style=" stroke:none;fill-rule:nonzero;fill:rgb(0%,0%,0%);fill-opacity:1;" d="M 9.207031 17.84375 C 7.691406 17.847656 6.238281 17.246094 5.167969 16.171875 L 0.402344 11.40625 C 0.144531 11.144531 0 10.792969 0 10.425781 C -0.00390625 10.046875 0.140625 9.6875 0.40625 9.417969 C 0.667969 9.152344 1.027344 9 1.40625 9 C 1.746094 9 2.082031 9.082031 2.386719 9.234375 L 4.421875 10.21875 L 4.421875 3.105469 C 4.421875 2.578125 4.703125 2.089844 5.15625 1.828125 C 5.613281 1.566406 6.175781 1.566406 6.632812 1.828125 L 6.632812 1.632812 C 6.632812 0.816406 7.292969 0.15625 8.105469 0.15625 C 8.917969 0.15625 9.578125 0.816406 9.578125 1.632812 L 9.578125 1.828125 C 9.804688 1.699219 10.0625 1.628906 10.324219 1.632812 C 11.132812 1.640625 11.78125 2.300781 11.78125 3.105469 L 11.78125 3.300781 C 12.007812 3.171875 12.265625 3.105469 12.527344 3.105469 C 13.335938 3.109375 13.988281 3.769531 13.988281 4.578125 L 13.988281 13.058594 C 13.984375 15.699219 11.847656 17.835938 9.207031 17.84375 Z M 1.40625 9.738281 C 1.128906 9.734375 0.882812 9.898438 0.777344 10.152344 C 0.675781 10.40625 0.734375 10.695312 0.933594 10.886719 L 5.699219 15.652344 C 6.625 16.585938 7.890625 17.109375 9.207031 17.105469 C 11.441406 17.101562 13.253906 15.292969 13.261719 13.058594 L 13.261719 4.578125 C 13.21875 4.203125 12.902344 3.917969 12.519531 3.917969 C 12.140625 3.917969 11.824219 4.203125 11.78125 4.578125 L 11.78125 7.898438 C 11.78125 8.101562 11.617188 8.261719 11.417969 8.261719 C 11.214844 8.261719 11.050781 8.101562 11.050781 7.898438 L 11.050781 3.105469 C 11.007812 2.726562 10.691406 2.445312 10.3125 2.445312 C 9.929688 2.445312 9.613281 2.726562 9.570312 3.105469 L 9.570312 7.898438 C 9.570312 8.101562 9.40625 8.261719 9.207031 8.261719 C 9.003906 8.261719 8.84375 8.101562 8.84375 7.898438 L 8.84375 1.632812 C 8.84375 1.226562 8.511719 0.894531 8.105469 0.894531 C 7.699219 0.894531 7.367188 1.226562 7.367188 1.632812 L 7.367188 7.898438 C 7.363281 8.101562 7.199219 8.261719 6.996094 8.261719 C 6.792969 8.261719 6.632812 8.101562 6.632812 7.898438 L 6.632812 3.105469 C 6.632812 2.699219 6.300781 2.367188 5.894531 2.367188 C 5.488281 2.367188 5.15625 2.699219 5.15625 3.105469 L 5.15625 10.847656 C 5.15625 10.972656 5.089844 11.085938 4.980469 11.152344 C 4.867188 11.214844 4.730469 11.214844 4.617188 11.152344 L 2.082031 9.894531 C 1.875 9.785156 1.640625 9.730469 1.40625 9.738281 Z M 1.40625 9.738281 "/>
</g>
</svg>
