<?xml version="1.0" encoding="iso-8859-1"?>
<!-- Generator: Adobe Illustrator 19.0.0, SVG Export Plug-In . SVG Version: 6.00 Build 0)  -->
<svg version="1.1" id="Layer_1" xmlns="http://www.w3.org/2000/svg" xmlns:xlink="http://www.w3.org/1999/xlink" x="0px" y="0px"
	 viewBox="0 0 511.999 511.999" style="enable-background:new 0 0 511.999 511.999;" xml:space="preserve">
<path style="fill:#F2F2F2;" d="M365.483,133.1H247.412c-31.073,0-56.352,25.28-56.352,56.352v298.396
	c0,13.316,10.834,24.151,24.151,24.151h182.473c13.317,0,24.151-10.835,24.151-24.151V189.452
	C421.835,158.379,396.556,133.1,365.483,133.1z"/>
<path style="fill:#E5E5E5;" d="M227.018,487.848V189.452c0-31.072,25.279-56.352,56.352-56.352h-35.958
	c-31.073,0-56.352,25.28-56.352,56.352v298.396c0,13.316,10.834,24.151,24.151,24.151h35.958
	C237.853,511.999,227.018,501.164,227.018,487.848z"/>
<path style="fill:#EB6836;" d="M326.127,45.083H286.77c-4.446,0-8.05,3.603-8.05,8.05v88.016c0,4.447,3.604,8.05,8.05,8.05h39.357
	c4.446,0,8.05-3.603,8.05-8.05V53.134C334.177,48.687,330.573,45.083,326.127,45.083z"/>
<path style="fill:#C74B38;" d="M286.77,45.083c-4.446,0-8.05,3.603-8.05,8.05v88.016c0,4.447,3.604,8.05,8.05,8.05h12.164V45.083
	C298.934,45.083,286.77,45.083,286.77,45.083z"/>
<path id="SVGCleanerId_0" style="fill:#CCCCCC;" d="M349.382,98.752h-85.87c-4.446,0-8.05,3.603-8.05,8.05v34.348
	c0,4.447,3.604,8.05,8.05,8.05h85.87c4.446,0,8.05-3.603,8.05-8.05v-34.348C357.433,102.355,353.828,98.752,349.382,98.752z"/>
<g>
	<path id="SVGCleanerId_0_1_" style="fill:#CCCCCC;" d="M349.382,98.752h-85.87c-4.446,0-8.05,3.603-8.05,8.05v34.348
		c0,4.447,3.604,8.05,8.05,8.05h85.87c4.446,0,8.05-3.603,8.05-8.05v-34.348C357.433,102.355,353.828,98.752,349.382,98.752z"/>
</g>
<path style="fill:#B2B2B2;" d="M263.513,98.752c-4.446,0-8.05,3.603-8.05,8.05v34.348c0,4.447,3.604,8.05,8.05,8.05h26.834V98.752
	C290.347,98.752,263.513,98.752,263.513,98.752z"/>
<path style="fill:#F7D04A;" d="M421.835,189.452c0-31.072-25.279-56.352-56.352-56.352H247.412
	c-31.073,0-56.352,25.28-56.352,56.352v15.027h230.774V189.452z"/>
<path style="fill:#F3B41B;" d="M283.37,133.1h-35.958c-31.073,0-56.352,25.28-56.352,56.352v15.027h35.958v-15.027
	C227.018,158.379,252.298,133.1,283.37,133.1z"/>
<path style="fill:#EB6836;" d="M312.965,258.787c-3.16-4.358-9.873-4.359-13.034,0c-6.529,9.002-63.789,88.987-63.789,124.943
	c0,38.767,31.539,70.306,70.306,70.306s70.306-31.539,70.306-70.306C376.753,347.774,319.493,267.789,312.965,258.787z"/>
<path style="fill:#C74B38;" d="M329.525,436.326c-38.767,0-70.306-31.539-70.306-70.306c0-27.62,33.784-81.214,52.409-108.665
	c-3.528-2.968-8.995-2.297-11.699,1.431c-6.529,9.002-63.789,88.987-63.789,124.943c0,38.767,31.539,70.306,70.306,70.306
	c21.306,0,40.416-9.54,53.32-24.559C350.602,433.864,340.347,436.326,329.525,436.326z"/>
<g>
	<circle style="fill:#FD9D7E;" cx="315.034" cy="407.342" r="19.321"/>
	<circle style="fill:#FD9D7E;" cx="332.207" cy="364.407" r="12.88"/>
</g>
<circle style="fill:#FEE7BE;" cx="383.729" cy="169.054" r="19.321"/>
<g>
	<path style="fill:#C74B38;" d="M231.312,86.945h-8.05c-4.446,0-8.05-3.603-8.05-8.05c0-4.447,3.604-8.05,8.05-8.05h8.05
		c4.446,0,8.05,3.603,8.05,8.05C239.362,83.342,235.758,86.945,231.312,86.945z"/>
	<path style="fill:#C74B38;" d="M194.012,86.945h-14.625c-4.446,0-8.05-3.603-8.05-8.05c0-4.447,3.604-8.05,8.05-8.05h14.625
		c4.446,0,8.05,3.603,8.05,8.05C202.063,83.342,198.458,86.945,194.012,86.945z M150.138,86.945h-14.625
		c-4.446,0-8.05-3.603-8.05-8.05c0-4.447,3.604-8.05,8.05-8.05h14.625c4.446,0,8.05,3.603,8.05,8.05
		C158.189,83.342,154.584,86.945,150.138,86.945z"/>
	<path style="fill:#C74B38;" d="M106.264,86.945h-8.05c-4.446,0-8.05-3.603-8.05-8.05c0-4.447,3.604-8.05,8.05-8.05h8.05
		c4.446,0,8.05,3.603,8.05,8.05C114.315,83.342,110.71,86.945,106.264,86.945z"/>
	<path style="fill:#C74B38;" d="M130.421,157.789c-3.079,0-6.017-1.775-7.355-4.768c-1.813-4.059,0.006-8.821,4.066-10.634
		l12.697-5.673c4.059-1.815,8.821,0.008,10.634,4.066c1.813,4.059-0.006,8.821-4.066,10.634l-12.697,5.673
		C132.633,157.564,131.518,157.789,130.421,157.789z M172.517,138.98c-3.079,0-6.017-1.775-7.355-4.768
		c-1.813-4.059,0.006-8.821,4.066-10.634l14.7-6.568c4.062-1.816,8.821,0.008,10.634,4.066c1.813,4.059-0.006,8.821-4.066,10.634
		l-14.7,6.568C174.73,138.754,173.614,138.98,172.517,138.98z M216.616,119.276c-3.079,0-6.017-1.775-7.355-4.768
		c-1.813-4.059,0.006-8.821,4.066-10.634l14.7-6.568c4.061-1.815,8.821,0.008,10.634,4.066c1.813,4.059-0.006,8.821-4.066,10.634
		l-14.7,6.568C218.83,119.05,217.713,119.276,216.616,119.276z"/>
	<path style="fill:#C74B38;" d="M231.308,61.186c-1.097,0-2.212-0.225-3.279-0.702l-14.7-6.568
		c-4.059-1.813-5.88-6.574-4.066-10.634c1.813-4.058,6.574-5.881,10.634-4.066l14.7,6.568c4.059,1.813,5.88,6.574,4.066,10.634
		C237.325,59.41,234.386,61.186,231.308,61.186z M187.208,41.481c-1.097,0-2.212-0.225-3.279-0.702l-14.7-6.568
		c-4.059-1.813-5.88-6.574-4.066-10.634c1.813-4.058,6.573-5.881,10.634-4.066l14.7,6.568c4.059,1.813,5.88,6.574,4.066,10.634
		C193.226,39.706,190.287,41.481,187.208,41.481z M143.108,21.777c-1.097,0-2.212-0.225-3.279-0.702l-12.697-5.673
		c-4.059-1.813-5.88-6.574-4.066-10.634s6.574-5.881,10.634-4.066l12.697,5.672c4.059,1.813,5.88,6.574,4.066,10.634
		C149.126,20.002,146.186,21.777,143.108,21.777z"/>
</g>
<g>
</g>
<g>
</g>
<g>
</g>
<g>
</g>
<g>
</g>
<g>
</g>
<g>
</g>
<g>
</g>
<g>
</g>
<g>
</g>
<g>
</g>
<g>
</g>
<g>
</g>
<g>
</g>
<g>
</g>
</svg>
