<?xml version="1.0" encoding="iso-8859-1"?>
<!-- Generator: Adobe Illustrator 19.0.0, SVG Export Plug-In . SVG Version: 6.00 Build 0)  -->
<svg version="1.1" id="Layer_1" xmlns="http://www.w3.org/2000/svg" xmlns:xlink="http://www.w3.org/1999/xlink" x="0px" y="0px"
	 viewBox="0 0 512 512" style="enable-background:new 0 0 512 512;" xml:space="preserve">
<path style="fill:#FDB51E;" d="M504.082,18.474v475.052c0,5.806-4.751,10.557-10.557,10.557H18.474
	c-5.806,0-10.557-4.751-10.557-10.557V18.474c0-5.806,4.751-10.557,10.557-10.557h475.052
	C499.332,7.918,504.082,12.668,504.082,18.474z"/>
<path style="fill:#FAA220;" d="M108.569,7.918H18.474c-5.806,0-10.557,4.751-10.557,10.557v475.052
	c0,5.806,4.751,10.557,10.557,10.557h475.052c5.806,0,10.557-4.751,10.557-10.557v-54.291
	C303.814,380.932,149.697,214.96,108.569,7.918z"/>
<path d="M493.526,512H18.474C8.288,512,0,503.712,0,493.526V18.474C0,8.288,8.288,0,18.474,0h475.052
	C503.712,0,512,8.288,512,18.474v475.052C512,503.712,503.712,512,493.526,512z M18.474,15.835c-1.43,0-2.639,1.209-2.639,2.639
	v475.052c0,1.43,1.209,2.639,2.639,2.639h475.052c1.43,0,2.639-1.209,2.639-2.639V18.474c0-1.43-1.209-2.639-2.639-2.639H18.474z"/>
<g>
	<rect x="34.309" y="36.948" style="fill:#FFFFFF;" width="26.392" height="15.835"/>
	<rect x="451.299" y="36.948" style="fill:#FFFFFF;" width="26.392" height="15.835"/>
	<rect x="34.309" y="459.217" style="fill:#FFFFFF;" width="26.392" height="15.835"/>
	<rect x="451.299" y="459.217" style="fill:#FFFFFF;" width="26.392" height="15.835"/>
	<polygon style="fill:#FFFFFF;" points="372.124,94.131 411.146,94.131 266.221,239.86 277.449,251.027 422.268,105.403 
		422.268,144.275 438.103,144.275 438.103,78.296 372.124,78.296 	"/>
	<polygon style="fill:#FFFFFF;" points="134.598,94.131 134.598,78.296 68.619,78.296 68.619,144.275 84.454,144.275 
		84.454,105.403 229.273,251.027 240.501,239.86 95.576,94.131 	"/>
	<polygon style="fill:#FFFFFF;" points="229.273,266.252 84.454,411.875 84.454,373.003 68.619,373.003 68.619,438.982 
		134.598,438.982 134.598,423.147 95.576,423.147 240.501,277.418 	"/>
	<polygon style="fill:#FFFFFF;" points="422.268,412.756 277.449,267.131 266.221,278.297 411.146,424.028 372.124,424.028 
		372.124,439.863 438.103,439.863 438.103,373.884 422.268,373.884 	"/>
</g>
<g>
</g>
<g>
</g>
<g>
</g>
<g>
</g>
<g>
</g>
<g>
</g>
<g>
</g>
<g>
</g>
<g>
</g>
<g>
</g>
<g>
</g>
<g>
</g>
<g>
</g>
<g>
</g>
<g>
</g>
</svg>
